<?xml version="1.0" encoding="UTF-8" standalone="no"?>
<!DOCTYPE svg PUBLIC "-//W3C//DTD SVG 1.1//EN" "http://www.w3.org/Graphics/SVG/1.1/DTD/svg11.dtd"><svg width="100%"
  height="100%" viewBox="0 0 2048 2048" version="1.1" xmlns="http://www.w3.org/2000/svg"
  xmlns:xlink="http://www.w3.org/1999/xlink" xml:space="preserve" xmlns:serif="http://www.serif.com/"
  style="fill-rule:evenodd;clip-rule:evenodd;stroke-linecap:round;stroke-linejoin:round;stroke-miterlimit:1.5;">
  <g>
    <path
      d="M473.633,1377.74c-0,0 -288.877,-157.6 -234.244,-436.484c0,-0 37.384,178.276 80.502,149.507c43.141,-28.745 8.635,-115.004 -43.118,-273.126c-51.756,-158.146 -104.796,-242.221 201.243,-488.765c103.509,-83.358 123.629,-186.891 123.629,-186.891c-0,0 55.875,184.579 -100.621,368c-30.84,36.162 11.495,89.16 51.756,28.79c-0,-0 48.865,-66.126 60.357,-135.135c-0,-0 48.879,91.996 -60.357,356.508c-43.839,106.086 42.172,109.246 93.269,43.838c2.094,-2.704 114.546,-145.953 96.468,-371.622c-0,0 138.012,238.623 -27.286,514.937c-154.665,258.601 -70.469,255.593 -70.469,255.593l-171.129,174.85Z"
      style="fill:#e2001a;fill-rule:nonzero;" />
    <g id="Timer">
      <g id="Knöpfe">
        <path d="M1264.33,547.638l-91.452,0l-0,99.66l-136.006,-0l-0,-99.66l-91.453,0l0,-89.107l318.911,-0l-0,89.107Z"
          style="fill:#131335;" />
        <path
          d="M594.855,718.957l-39.786,39.786l78.76,78.76l-59.169,59.17l-78.76,-78.761l-39.787,39.786l-54.717,-54.718l138.741,-138.741l54.718,54.718Z"
          style="fill:#131335;" />
        <path
          d="M1753.64,857.698l-39.786,-39.786l-78.761,78.761l-59.169,-59.17l78.76,-78.76l-39.786,-39.786l54.718,-54.718l138.741,138.741l-54.717,54.718Z"
          style="fill:#131335;" />
      </g>
      <circle cx="1104.88" cy="1236.99" r="424.279" style="fill:none;" />
      <clipPath id="_clip1">
        <circle cx="1104.88" cy="1236.99" r="424.279" />
      </clipPath>
      <g clip-path="url(#_clip1)">
        <g id="Ziffernblatt">
          <path d="M903.695,888.536l31.765,55.019" style="fill:none;stroke:#131335;stroke-width:24px;" />
          <path d="M1104.88,834.63l-0,42.354" style="fill:none;stroke:#131335;stroke-width:18px;" />
          <path d="M756.422,1035.81l36.679,21.177" style="fill:none;stroke:#131335;stroke-width:18px;" />
          <path d="M756.422,1438.17l36.679,-21.177" style="fill:none;stroke:#131335;stroke-width:18px;" />
          <path d="M903.695,1585.44l21.177,-36.679" style="fill:none;stroke:#131335;stroke-width:18px;" />
          <path d="M1306.05,1585.44l-21.177,-36.679" style="fill:none;stroke:#131335;stroke-width:18px;" />
          <path d="M1453.33,1438.17l-36.679,-21.177" style="fill:none;stroke:#131335;stroke-width:18px;" />
          <path d="M1453.33,1035.81l-36.679,21.177" style="fill:none;stroke:#131335;stroke-width:18px;" />
          <path d="M1306.05,888.536l-21.177,36.679" style="fill:none;stroke:#131335;stroke-width:18px;" />
          <path d="M702.516,1236.99l63.53,-0" style="fill:none;stroke:#131335;stroke-width:24px;" />
          <path d="M1104.88,1639.35l-0,-63.53" style="fill:none;stroke:#131335;stroke-width:24px;" />
          <path d="M1507.23,1236.99l-63.53,-0" style="fill:none;stroke:#131335;stroke-width:24px;" />
        </g>
        <g id="Zeiger">
          <circle cx="1104.88" cy="1236.99" r="33.036" style="fill:#131335;" />
          <path id="Stunde" d="M1104.88,1236.99l-0,-286.31" style="fill:none;stroke:#131335;stroke-width:32px;" />
          <path id="Minute" d="M1104.88,1236.99l164.091,94.738" style="fill:none;stroke:#131335;stroke-width:24px;" />
        </g>
      </g>
      <path
        d="M1104.88,589.646c357.278,-0 647.343,290.064 647.343,647.343c-0,357.278 -290.065,647.343 -647.343,647.343c-357.279,-0 -647.344,-290.065 -647.344,-647.343c0,-357.279 290.065,-647.343 647.344,-647.343Zm-0,223.063c234.166,0 424.279,190.114 424.279,424.28c-0,234.166 -190.113,424.279 -424.279,424.279c-234.167,-0 -424.28,-190.113 -424.28,-424.279c0,-234.166 190.113,-424.28 424.28,-424.28Z"
        style="fill:#131335;" />
      <clipPath id="_clip2">
        <path
          d="M1104.88,589.646c357.278,-0 647.343,290.064 647.343,647.343c-0,357.278 -290.065,647.343 -647.343,647.343c-357.279,-0 -647.344,-290.065 -647.344,-647.343c0,-357.279 290.065,-647.343 647.344,-647.343Zm-0,223.063c234.166,0 424.279,190.114 424.279,424.28c-0,234.166 -190.113,424.279 -424.279,424.279c-234.167,-0 -424.28,-190.113 -424.28,-424.279c0,-234.166 190.113,-424.28 424.28,-424.28Z" />
      </clipPath>
      <g clip-path="url(#_clip2)">
        <path
          d="M601.451,778.339c-114.269,125.423 -177.604,288.984 -177.604,458.656c-0,375.872 305.161,681.033 681.033,681.033c375.873,0 681.034,-305.161 681.034,-681.033c0,-328.777 -234.883,-610.616 -558.275,-669.879l-122.759,669.879l-503.429,-458.656Z"
          style="fill:#fd0;" />
      </g>
      <g>
        <path
          d="M593.102,910.869l127.041,31.6l-12.11,23.366l-86.489,-23.203l66.946,60.913l-14.068,27.145l-89.239,-21.106l69.975,58.276l-11.91,22.981l-98.825,-86.044l12.549,-24.215l96.19,21.285l-72.889,-66.244l12.829,-24.754Z"
          style="fill-rule:nonzero;" />
        <path
          d="M509.507,1124.38l126.66,13.082l-9.7,93.915l-21.426,-2.213l7.058,-68.341l-28.079,-2.9l-6.568,63.589l-21.34,-2.204l6.567,-63.589l-34.473,-3.561l-7.308,70.761l-21.34,-2.205l9.949,-96.334Z"
          style="fill-rule:nonzero;" />
        <path
          d="M512.278,1350.89l103.393,-22.407l-8.002,-36.926l21.052,-4.562l21.431,98.894l-21.052,4.562l-7.984,-36.841l-103.393,22.406l-5.445,-25.126Z"
          style="fill-rule:nonzero;" />
        <path
          d="M576.701,1527.59l91.38,-53.308l-19.038,-32.636l18.606,-10.854l50.988,87.404l-18.606,10.854l-18.995,-32.561l-91.38,53.308l-12.955,-22.207Z"
          style="fill-rule:nonzero;" />
        <path
          d="M670.694,1658.14l82.441,-97.043l19.594,16.645l-36.609,43.094l76.194,-9.465l26.346,22.382l-68.65,6.756l-11.805,91.974l-25.353,-21.538l12.013,-68.206l-29.665,2.722l-24.912,29.325l-19.594,-16.646Z"
          style="fill-rule:nonzero;" />
        <path
          d="M946.655,1821.27l-26.078,-10.107l0.085,-30.986l-47.46,-18.393l-20.251,23.172l-25.431,-9.855l92.257,-100.809l25.35,9.824l1.528,137.154Zm-25.935,-64.079l0.714,-50.398l-33.109,37.843l32.395,12.555Zm-13.532,-95.602l7.564,-19.519l19.518,7.565l-7.564,19.518l-19.518,-7.564Zm34.825,13.496l7.564,-19.518l19.599,7.595l-7.564,19.518l-19.599,-7.595Z"
          style="fill-rule:nonzero;" />
        <path
          d="M1039.48,1838.33l0.807,-127.331l38.478,0.244l22.552,87.003l23.394,-86.712l38.564,0.245l-0.807,127.331l-23.886,-0.151l0.636,-100.232l-25.911,100.071l-24.754,-0.157l-24.552,-100.391l-0.636,100.231l-23.885,-0.151Z"
          style="fill-rule:nonzero;" />
        <path
          d="M1266.96,1818.74l-43.904,-119.526l38.727,-14.225c14.676,-5.391 24.462,-8.307 29.358,-8.748c7.508,-0.722 14.675,1.072 21.501,5.381c6.826,4.309 11.987,11.219 15.48,20.731c2.696,7.338 3.63,13.997 2.804,19.975c-0.827,5.979 -2.768,11.149 -5.824,15.51c-3.055,4.361 -6.533,7.782 -10.433,10.264c-5.343,3.258 -13.476,6.893 -24.402,10.906l-15.735,5.78l16.561,45.087l-24.133,8.865Zm-12.344,-108.171l12.459,33.918l13.208,-4.852c9.512,-3.494 15.642,-6.455 18.39,-8.883c2.747,-2.428 4.542,-5.308 5.385,-8.641c0.842,-3.332 0.615,-6.764 -0.683,-10.297c-1.597,-4.349 -4.192,-7.467 -7.785,-9.355c-3.593,-1.888 -7.476,-2.467 -11.649,-1.736c-3.08,0.515 -8.969,2.369 -17.666,5.564l-11.659,4.282Z"
          style="fill-rule:nonzero;" />
        <path
          d="M1446.85,1734.35l-79.435,-99.519l68.224,-54.456l13.438,16.836l-48.13,38.417l18.802,23.556l41.545,-33.161l13.438,16.835l-41.545,33.161l33.756,42.292l-20.093,16.039Z"
          style="fill-rule:nonzero;" />
        <path
          d="M1584.1,1605.13l-106.611,-69.627l51.627,-79.049l18.035,11.779l-37.568,57.523l23.634,15.436l34.957,-53.524l17.962,11.731l-34.956,53.524l29.016,18.95l38.898,-59.559l17.963,11.731l-52.957,81.085Z"
          style="fill-rule:nonzero;" />
        <path
          d="M1703.42,1314.33l-105.163,-11.534l-4.119,37.558l-21.412,-2.348l11.031,-100.586l21.413,2.348l-4.11,37.472l105.163,11.533l-2.803,25.557Z"
          style="fill-rule:nonzero;" />
        <path d="M1703.29,1155.08l-125.839,19.453l-3.928,-25.408l125.839,-19.453l3.928,25.408Z"
          style="fill-rule:nonzero;" />
        <path
          d="M1675.11,1027.7l-114.572,55.563l-16.79,-34.621l68.071,-58.69l-88.121,17.347l-16.828,-34.699l114.571,-55.564l10.423,21.492l-90.187,43.738l101.217,-20.995l10.801,22.273l-79.196,66.402l90.188,-43.738l10.423,21.492Z"
          style="fill-rule:nonzero;" />
        <path
          d="M1556.86,832.45l-88.006,92.027l-68.235,-65.254l14.888,-15.568l49.654,47.485l19.51,-20.402l-46.202,-44.183l14.828,-15.505l46.202,44.183l23.952,-25.047l-51.412,-49.165l14.828,-15.505l69.993,66.934Z"
          style="fill-rule:nonzero;" />
        <path
          d="M1402.51,706.966l-51.866,116.292l-49.42,-22.042c-12.427,-5.543 -20.991,-10.614 -25.692,-15.215c-4.7,-4.601 -7.552,-10.327 -8.554,-17.178c-1.003,-6.85 0.029,-13.713 3.096,-20.588c3.891,-8.726 9.67,-14.788 17.335,-18.185c7.665,-3.397 16.931,-3.56 27.798,-0.488c-3.756,-5.226 -6.496,-10.348 -8.221,-15.365c-1.725,-5.017 -3.374,-13.298 -4.946,-24.841l-4.081,-29.02l28.081,12.524l5.69,32.876c1.996,11.732 3.579,19.27 4.751,22.614c1.171,3.344 2.805,6.007 4.902,7.988c2.096,1.981 5.841,4.174 11.235,6.58l4.76,2.123l21.652,-48.547l23.48,10.472Zm-53.411,56.637l-17.372,-7.748c-11.265,-5.024 -18.51,-7.685 -21.738,-7.983c-3.227,-0.298 -6.153,0.363 -8.777,1.982c-2.625,1.619 -4.715,4.174 -6.272,7.664c-1.745,3.914 -2.11,7.539 -1.094,10.877c1.015,3.338 3.286,6.173 6.81,8.506c1.786,1.114 7.439,3.793 16.958,8.039l18.324,8.172l13.161,-29.509Z"
          style="fill-rule:nonzero;" />
      </g>
    </g>
  </g>
</svg>